PathFileType	4	(X/Y/Z)	tour_sanitized_100ms.trc
DataRate	CameraRate	NumFrames	NumMarkers	Units	OrigDataRate	OrigDataStartFrame	OrigNumFrames
360.00	360.00	9	33	m	360.00	19	37
Frame#	Time	WaistLeft			WaistRight			WaistLBack			WaistRBack			BackTop			BackLeft			BackRight			HeadTop			HeadFront			HeadSide			LShoulderTop			LShoulderBack			LElbowOut			LUArmHigh			LWristTop			RShoulderBack			RElbowOut			RUArmHigh			RWristTop			LKneeOut			LToeIn			LToeOut			LAnkleOut			RKneeOut			RToeIn			RToeOut			RAnkleOut			Marker_2:2:1			Marker_2:2:2			Marker_2:2:3			Marker_3:3:1			Marker_3:3:2			Marker_3:3:3		
		X1	Y1	Z1	X2	Y2	Z2	X3	Y3	Z3	X4	Y4	Z4	X5	Y5	Z5	X6	Y6	Z6	X7	Y7	Z7	X8	Y8	Z8	X9	Y9	Z9	X10	Y10	Z10	X11	Y11	Z11	X12	Y12	Z12	X13	Y13	Z13	X14	Y14	Z14	X15	Y15	Z15	X16	Y16	Z16	X17	Y17	Z17	X18	Y18	Z18	X19	Y19	Z19	X20	Y20	Z20	X21	Y21	Z21	X22	Y22	Z22	X23	Y23	Z23	X24	Y24	Z24	X25	Y25	Z25	X26	Y26	Z26	X27	Y27	Z27	X28	Y28	Z28	X29	Y29	Z29	X30	Y30	Z30	X31	Y31	Z31	X32	Y32	Z32	X33	Y33	Z33

19	0.050000000	1.097959	1.006606	0.123965	1.090140	1.022241	-0.220454	1.232185	1.060811	0.034946	1.235601	1.062275	-0.134166	0.918111	1.497416	-0.094239	1.055519	1.384860	0.016920	1.048268	1.360623	-0.163668	0.653912	1.666384	-0.098372	0.575728	1.531768	-0.094582	0.696314	1.606113	0.013306	0.814244	1.427134	0.117921	0.963860	1.486191	0.065483	0.939609	1.106381	0.128787	0.949742	1.265837	0.172761	0.833985	0.865155	0.059410	0.922612	1.434420	-0.231854	0.903013	1.020805	-0.182514	0.908580	1.175017	-0.267773	0.794726	0.798866	-0.062993	1.093433	0.510215	0.227913	0.987366	0.051850	0.226054	1.021416	0.043462	0.327055	1.165874	0.097539	0.270738	1.045899	0.528309	-0.298030	0.981281	0.036287	-0.288892	0.979318	0.038826	-0.406488	1.117935	0.118059	-0.377962	0.124466	0.049510	0.044017	0.034983	0.073076	0.042757	0.041134	0.049814	-0.003311	0.620991	0.521124	0.062775	0.669035	0.574296	0.026360	0.705839	0.607418	0.058317
20	0.052777778	1.097989	1.006595	0.123934	1.090213	1.022245	-0.220512	1.232214	1.060796	0.034911	1.235654	1.062244	-0.134209	0.918171	1.497418	-0.094256	1.055542	1.384833	0.016875	1.048302	1.360609	-0.163724	0.653960	1.666383	-0.098363	0.575774	1.531761	-0.094583	0.696374	1.606108	0.013315	0.814311	1.427120	0.117910	0.963899	1.486166	0.065464	0.939627	1.106360	0.128718	0.949749	1.265792	0.172715	0.834020	0.865134	0.059328	0.922650	1.434439	-0.231892	0.903027	1.020847	-0.182555	0.908570	1.175035	-0.267803	0.794748	0.798887	-0.063060	1.093468	0.510219	0.227918	0.987362	0.051832	0.226058	1.021428	0.043464	0.327060	1.165869	0.097540	0.270743	1.045910	0.528314	-0.298065	0.981305	0.036292	-0.288883	0.979305	0.038820	-0.406493	1.117926	0.118039	-0.377938	0.124404	0.049541	0.043762	0.034886	0.073114	0.042531	0.041060	0.049841	-0.003573	0.620952	0.521110	0.062612	0.669029	0.574314	0.026183	0.705786	0.607441	0.058163
21	0.055555556	1.098043	1.006599	0.123894	1.090294	1.022251	-0.220560	1.232265	1.060775	0.034897	1.235726	1.062241	-0.134225	0.918215	1.497408	-0.094276	1.055612	1.384821	0.016850	1.048358	1.360617	-0.163756	0.654014	1.666381	-0.098363	0.575847	1.531756	-0.094579	0.696413	1.606091	0.013317	0.814359	1.427096	0.117873	0.963980	1.486144	0.065435	0.939618	1.106320	0.128631	0.949799	1.265766	0.172672	0.834015	0.865113	0.059232	0.922699	1.434450	-0.231904	0.903055	1.020861	-0.182577	0.908604	1.175078	-0.267855	0.794784	0.798906	-0.063106	1.093481	0.510221	0.227906	0.987359	0.051845	0.226060	1.021423	0.043475	0.327055	1.165866	0.097533	0.270752	1.045925	0.528331	-0.298088	0.981296	0.036299	-0.288893	0.979314	0.038839	-0.406480	1.117923	0.118048	-0.377957	0.124373	0.049577	0.043474	0.034826	0.073155	0.042315	0.041014	0.049877	-0.003866	0.620925	0.521110	0.062423	0.669002	0.574319	0.026024	0.705742	0.607437	0.057996
22	0.058333333	1.098053	1.006584	0.123854	1.090389	1.022267	-0.220610	1.232312	1.060764	0.034876	1.235805	1.062235	-0.134256	0.918278	1.497413	-0.094279	1.055666	1.384795	0.016809	1.048403	1.360615	-0.163810	0.654073	1.666381	-0.098358	0.575895	1.531765	-0.094596	0.696462	1.606072	0.013302	0.814425	1.427088	0.117858	0.964030	1.486131	0.065412	0.939629	1.106292	0.128532	0.949858	1.265744	0.172627	0.834040	0.865092	0.059159	0.922740	1.434470	-0.231927	0.903095	1.020907	-0.182591	0.908624	1.175089	-0.267889	0.794801	0.798930	-0.063153	1.093505	0.510221	0.227901	0.987364	0.051843	0.226070	1.021447	0.043474	0.327060	1.165887	0.097537	0.270760	1.045931	0.528341	-0.298117	0.981306	0.036301	-0.288880	0.979306	0.038852	-0.406491	1.117935	0.118050	-0.377948	0.124290	0.049637	0.043159	0.034765	0.073191	0.042075	0.040967	0.049923	-0.004167	0.620863	0.521110	0.062225	0.668992	0.574331	0.025845	0.705747	0.607443	0.057853
23	0.061111111	1.098110	1.006585	0.123821	1.090471	1.022279	-0.220672	1.232339	1.060746	0.034841	1.235859	1.062209	-0.134291	0.918322	1.497398	-0.094305	1.055714	1.384780	0.016774	1.048466	1.360618	-0.163856	0.654107	1.666376	-0.098356	0.575931	1.531737	-0.094598	0.696499	1.606058	0.013301	0.814485	1.427069	0.117834	0.964093	1.486106	0.065391	0.939682	1.106268	0.128477	0.949870	1.265694	0.172584	0.834027	0.865079	0.059062	0.922788	1.434485	-0.231961	0.903108	1.020936	-0.182639	0.908628	1.175127	-0.267954	0.794854	0.798959	-0.063223	1.093546	0.510235	0.227894	0.987386	0.051866	0.226066	1.021439	0.043483	0.327059	1.165874	0.097535	0.270753	1.045911	0.528324	-0.298115	0.981309	0.036309	-0.288879	0.979302	0.038849	-0.406487	1.117924	0.118054	-0.377970	0.124219	0.049722	0.042833	0.034727	0.073227	0.041775	0.040933	0.049963	-0.004511	0.620824	0.521099	0.062022	0.668945	0.574352	0.025652	0.705726	0.607426	0.057659
24	0.063888889	1.098152	1.006575	0.123779	1.090560	1.022297	-0.220714	1.232378	1.060723	0.034800	1.235940	1.062201	-0.134324	0.918356	1.497383	-0.094308	1.055746	1.384742	0.016730	1.048522	1.360614	-0.163907	0.654158	1.666380	-0.098352	0.576006	1.531728	-0.094620	0.696525	1.606026	0.013284	0.814535	1.427048	0.117791	0.964136	1.486078	0.065359	0.939690	1.106211	0.128388	0.949901	1.265646	0.172528	0.834044	0.865052	0.058988	0.922855	1.434512	-0.231985	0.903111	1.020943	-0.182673	0.908655	1.175169	-0.268006	0.794887	0.798975	-0.063278	1.093575	0.510234	0.227889	0.987376	0.051877	0.226065	1.021438	0.043478	0.327061	1.165873	0.097526	0.270757	1.045943	0.528352	-0.298158	0.981314	0.036320	-0.288887	0.979315	0.038859	-0.406484	1.117943	0.118092	-0.377979	0.124164	0.049754	0.042492	0.034669	0.073307	0.041426	0.040902	0.050030	-0.004899	0.620794	0.521115	0.061798	0.668987	0.574517	0.025449	0.705678	0.607415	0.057507
25	0.066666667	1.098199	1.006566	0.123745	1.090646	1.022299	-0.220758	1.232421	1.060720	0.034780	1.236005	1.062179	-0.134367	0.918406	1.497385	-0.094337	1.055801	1.384723	0.016687	1.048565	1.360613	-0.163966	0.654212	1.666374	-0.098347	0.576052	1.531744	-0.094621	0.696616	1.606015	0.013300	0.814645	1.427028	0.117782	0.964183	1.486049	0.065343	0.939720	1.106211	0.128316	0.949952	1.265615	0.172477	0.834051	0.865018	0.058903	0.922894	1.434536	-0.232013	0.903154	1.021026	-0.182727	0.908696	1.175217	-0.268063	0.794907	0.799000	-0.063340	1.093599	0.510249	0.227874	0.987378	0.051876	0.226066	1.021462	0.043500	0.327075	1.165878	0.097539	0.270764	1.045931	0.528356	-0.298185	0.981341	0.036335	-0.288876	0.979292	0.038909	-0.406498	1.117934	0.118094	-0.377978	0.124088	0.049764	0.042120	0.034597	0.073368	0.041019	0.040837	0.050080	-0.005292	0.620742	0.521112	0.061551	0.668881	0.574397	0.025255	0.705662	0.607439	0.057347
26	0.069444444	1.098242	1.006577	0.123702	1.090731	1.022314	-0.220828	1.232462	1.060693	0.034761	1.236077	1.062155	-0.134390	0.918442	1.497366	-0.094350	1.055860	1.384701	0.016652	1.048616	1.360610	-0.164005	0.654259	1.666374	-0.098357	0.576125	1.531731	-0.094618	0.696674	1.606006	0.013295	0.814694	1.426998	0.117763	0.964256	1.486030	0.065307	0.939748	1.106166	0.128224	0.949991	1.265567	0.172426	0.834054	0.865002	0.058793	0.922961	1.434554	-0.232032	0.903179	1.021056	-0.182744	0.908709	1.175243	-0.268116	0.794936	0.799040	-0.063427	1.093638	0.510263	0.227872	0.987365	0.051880	0.226064	1.021458	0.043503	0.327074	1.165883	0.097531	0.270761	1.045957	0.528376	-0.298215	0.981314	0.036330	-0.288885	0.979313	0.038907	-0.406483	1.117953	0.118121	-0.377989	0.124009	0.049774	0.041704	0.034528	0.073429	0.040596	0.040763	0.050149	-0.005727	0.620692	0.521135	0.061316	0.668854	0.574445	0.025076	0.705641	0.607450	0.057161
27	0.072222222	1.098298	1.006577	0.123659	1.090810	1.022293	-0.220866	1.232499	1.060686	0.034728	1.236151	1.062127	-0.134432	0.918505	1.497362	-0.094359	1.055909	1.384678	0.016626	1.048686	1.360618	-0.164064	0.654326	1.666373	-0.098347	0.576205	1.531741	-0.094641	0.696748	1.606001	0.013293	0.814760	1.426991	0.117749	0.964310	1.486020	0.065294	0.939754	1.106143	0.128136	0.950037	1.265540	0.172373	0.834070	0.864982	0.058695	0.922995	1.434572	-0.232065	0.903212	1.021126	-0.182780	0.908734	1.175280	-0.268154	0.794985	0.799062	-0.063512	1.093679	0.510258	0.227862	0.987402	0.051882	0.226088	1.021467	0.043514	0.327080	1.165900	0.097547	0.270763	1.045965	0.528376	-0.298236	0.981344	0.036341	-0.288878	0.979309	0.038911	-0.406483	1.117945	0.118120	-0.378000	0.123926	0.049820	0.041273	0.034469	0.073470	0.040114	0.040677	0.050246	-0.006194	0.620620	0.521147	0.061035	0.668805	0.574470	0.024889	0.705596	0.607461	0.056974
